HIERARCHY
ROOT Hips
{
	OFFSET 0.00000 0.00000 0.00000
	CHANNELS 6 Xposition Yposition Zposition Zrotation Yrotation Xrotation 
	JOINT LHipJoint
	{
		OFFSET 0 0 0
		CHANNELS 3 Zrotation Yrotation Xrotation
		JOINT LeftHip
		{
			OFFSET 1.26600 -1.82114 0.91038
			CHANNELS 3 Zrotation Yrotation Xrotation
			JOINT LeftKnee
			{
				OFFSET 2.50076 -6.87080 0.00000
				CHANNELS 3 Zrotation Yrotation Xrotation
				JOINT LeftAnkle
				{
					OFFSET 2.57364 -7.07102 0.00000
					CHANNELS 3 Zrotation Yrotation Xrotation
					JOINT LeftToe
					{
						OFFSET 0.13572 -0.37290 1.97004
						CHANNELS 3 Zrotation Yrotation Xrotation
						End Site
						{
							OFFSET 0.00000 -0.00000 1.01383
						}
					}
				}
			}
		}
	}
	JOINT RHipJoint
	{
		OFFSET 0 0 0
		CHANNELS 3 Zrotation Yrotation Xrotation
		JOINT RightHip
		{
			OFFSET -1.20803 -1.82114 0.91038
			CHANNELS 3 Zrotation Yrotation Xrotation
			JOINT RightKnee
			{
				OFFSET -2.54916 -7.00377 0.00000
				CHANNELS 3 Zrotation Yrotation Xrotation
				JOINT RightAnkle
				{
					OFFSET -2.56374 -7.04382 0.00000
					CHANNELS 3 Zrotation Yrotation Xrotation
					JOINT RightToe
					{
						OFFSET -0.23520 -0.64621 2.09921
						CHANNELS 3 Zrotation Yrotation Xrotation
						End Site
						{
							OFFSET -0.00000 -0.00000 1.10065
						}
					}
				}
			}
		}
	}
	JOINT lowerback
	{
		OFFSET 0 0 0
		CHANNELS 3 Zrotation Yrotation Xrotation
		JOINT Chest
		{
			OFFSET 0.05492 2.10797 -0.12074
			CHANNELS 3 Zrotation Yrotation Xrotation
			JOINT Chest2
			{
				OFFSET 0.04577 2.11592 -0.04483
				CHANNELS 3 Zrotation Yrotation Xrotation
				JOINT lowerneck
				{
					OFFSET 0 0 0
					CHANNELS 3 Zrotation Yrotation Xrotation
					JOINT Neck
					{
						OFFSET -0.10759 1.80167 0.15770
						CHANNELS 3 Zrotation Yrotation Xrotation
						JOINT Head
						{
							OFFSET 0.09237 1.77509 -0.40848
							CHANNELS 3 Zrotation Yrotation Xrotation
							End Site
							{
								OFFSET 0.03805 1.84093 -0.15754
							}
						}
					}
				}
				JOINT LeftCollar
				{
					OFFSET 0 0 0
					CHANNELS 3 Zrotation Yrotation Xrotation
					JOINT LeftShoulder
					{
						OFFSET 3.42372 1.09575 -0.28209
CHANNELS 3 Zrotation Xrotation Yrotation
						JOINT LeftElbow
						{
OFFSET 0 -4.956810 0.000000
CHANNELS 3 Zrotation Xrotation Yrotation
							JOINT LeftWrist
							{
OFFSET 0 -3.409150 0.000000
CHANNELS 3 Zrotation Xrotation Yrotation
								JOINT lhand
								{
									OFFSET 0 0 0
CHANNELS 3 Zrotation Xrotation Yrotation
									JOINT LFingers
									{
OFFSET 0 -0.616400 0.000000
CHANNELS 3 Zrotation Xrotation Yrotation
										End Site
										{
OFFSET 0 -0.496960 0.000000
										}
									}
								}
								JOINT LThumb
								{
OFFSET 0 0.000000 0.000000
CHANNELS 3 Zrotation Xrotation Yrotation
									End Site
									{
OFFSET 0 -0.504550 0.504550
									}
								}
							}
						}
					}
				}
				JOINT RightCollar
				{
					OFFSET 0 0 0
					CHANNELS 3 Zrotation Yrotation Xrotation
					JOINT RightShoulder
					{
						OFFSET -3.24731 1.15872 -0.32221
CHANNELS 3 Zrotation Xrotation Yrotation
						JOINT RightElbow
						{
OFFSET 0 -5.352000 0.000000
CHANNELS 3 Zrotation Xrotation Yrotation
							JOINT RightWrist
							{
OFFSET 0 -3.437210 -0.000000
CHANNELS 3 Zrotation Xrotation Yrotation
								JOINT rhand
								{
									OFFSET 0 0 0
CHANNELS 3 Zrotation Xrotation Yrotation
									JOINT RFingers
									{
OFFSET 0 -0.720090 0.000000
CHANNELS 3 Zrotation Xrotation Yrotation
										End Site
										{
OFFSET 0 -0.580560 0.000000
										}
									}
								}
								JOINT RThumb
								{
OFFSET 0 0.000000 0.000000
CHANNELS 3 Zrotation Xrotation Yrotation
									End Site
									{
OFFSET 0 -0.589420 0.589420
									}
								}
							}
						}
					}
				}
			}
		}
	}
}
MOTION
Frames: 9
Frame Time: 0.008333333333333333
8.357200 17.691800 30.967600 -172.792000 -0.892200 -176.868000 0.000000 0.000000 0.000000 -12.103200 -2.502800 -6.368500 2.697400 10.188300 29.588600 1.428800 -3.249100 -21.771700 0.004700 -0.440900 -1.211600 0.000000 0.000000 0.000000 29.378100 -0.843600 -7.651000 -2.562800 -9.951300 28.819100 -1.475600 2.895000 -22.208200 -0.340600 -3.750300 10.375200 4.855000 0.250700 0.676700 3.324500 0.280500 -2.000300 0.697100 -0.012500 -2.426800 -8.773400 -1.715200 -15.849200 3.872700 -2.497900 27.410200 2.462900 -2.079000 11.742100 0.000000 0.000000 0.000000 -0.112000 6.133200 -29.187900 13.924000 -22.625900 2.798800 15.621400 4.445100 -21.477300 0.000000 0.000000 0.000000 -7.125000 0.000000 0.000000 -13.308500 51.718000 2.234700 0.000000 0.000000 0.000000 -2.393600 2.515800 12.786900 -12.843500 -21.057500 -2.396800 -21.441100 -8.231600 -11.854800 0.000000 0.000000 0.000000 7.125000 0.000000 -0.000000 4.004600 17.290700 2.639900
8.412373 17.664671 31.002319 -173.649596 -1.101123 -176.996337 0.000000 0.000000 0.000000 -12.458631 -0.949874 -7.275741 2.779303 10.328869 30.048436 1.420611 -5.046825 -21.446610 0.020319 -0.918045 -2.523302 0.000000 0.000000 0.000000 28.793833 0.010673 -7.891940 -2.779964 -10.329971 30.052007 -1.599033 2.447311 -23.250480 -0.425976 -4.187922 11.606115 3.464747 -0.053223 1.472649 3.260919 -0.071185 -1.935529 1.420096 -0.148341 -2.814327 -9.158153 -1.498545 -16.092473 4.344792 -2.240940 27.797089 2.746566 -1.967849 11.930061 0.000000 0.000000 0.000000 -0.049499 5.710370 -27.488390 13.858445 -22.531938 2.773659 14.146782 7.154870 -23.175969 0.000000 0.000000 0.000000 -7.125000 0.000000 0.000000 -15.510014 53.128968 3.171505 0.000000 0.000000 0.000000 -2.459355 2.259701 14.475198 -13.079914 -21.404198 -2.482388 -21.968199 -9.031560 -11.131339 0.000000 0.000000 0.000000 7.125000 0.000000 0.000000 3.610981 18.015029 2.321419
8.482763 17.617711 30.997677 -173.418150 -1.133140 -177.879846 0.000000 0.000000 0.000000 -11.806258 -0.371964 -6.709306 2.875354 10.490543 30.580269 1.409600 -5.803449 -21.294135 0.040695 -1.295063 -3.561045 0.000000 0.000000 0.000000 29.226123 -0.660966 -7.317811 -2.863428 -10.470613 30.514707 -1.694797 3.158823 -23.808892 -0.677194 -5.260823 14.654132 3.633476 0.105572 2.067420 3.169782 0.167522 -1.190680 1.218153 -0.014983 -2.380530 -9.055946 -1.553873 -16.117305 4.242446 -2.362588 28.066183 2.673841 -2.040353 12.048565 0.000000 0.000000 0.000000 0.785232 4.584031 -27.576024 13.968459 -22.689642 2.815964 12.295757 7.430366 -25.927173 0.000000 0.000000 0.000000 -7.125000 0.000000 0.000000 -18.794122 55.430023 4.941232 0.000000 0.000000 0.000000 -1.882511 1.741200 14.173719 -13.159232 -21.520039 -2.511421 -20.874277 -9.287917 -11.843893 0.000000 0.000000 0.000000 7.125000 0.000000 0.000000 4.400018 17.352909 2.895987
8.561542 17.596366 30.958504 -172.571142 -1.493637 -178.523549 0.000000 0.000000 0.000000 -10.665048 -1.814544 -6.948236 3.396832 11.310790 33.335907 1.430265 -5.104391 -21.515965 0.109825 -2.133854 -5.875853 0.000000 0.000000 0.000000 30.478936 -1.375669 -6.128153 -2.663284 -10.128838 29.395043 -1.687902 2.711250 -23.851359 -0.518286 -4.614182 12.811396 4.872054 0.132000 2.777439 3.280540 0.242129 -0.651902 0.637014 0.000862 -2.219403 -9.428973 -1.353440 -16.351650 4.323930 -2.172581 29.288022 2.804041 -2.076094 12.574519 0.000000 0.000000 0.000000 1.061734 4.215755 -26.842634 14.374755 -23.267871 2.974636 16.534844 5.998352 -20.871714 0.000000 0.000000 0.000000 -7.125000 0.000000 0.000000 -12.178089 51.267535 1.904103 0.000000 0.000000 0.000000 -1.556201 1.836146 15.166312 -13.406494 -21.879859 -2.602829 -19.940391 -9.432800 -12.005032 0.000000 0.000000 0.000000 7.125000 0.000000 0.000000 5.056109 17.264275 3.340906
8.663239 17.623436 30.929917 -171.313371 -2.005496 -179.267247 0.000000 0.000000 0.000000 -8.736321 -4.880117 -9.546356 5.040623 13.427985 40.994965 1.000241 -4.575218 -17.923378 0.483308 -4.457055 -12.366339 0.000000 0.000000 0.000000 32.271129 -2.522180 -4.209025 -2.194959 -9.260605 26.614157 -1.550832 2.682159 -22.832924 -0.571700 -4.842121 13.458851 6.160005 0.310222 3.906257 3.788388 0.523830 -0.028453 0.429100 0.103663 -2.193899 -9.482962 -1.106610 -16.092198 3.870332 -1.919602 30.367845 2.678550 -2.132328 12.938306 0.000000 0.000000 0.000000 0.973590 4.032419 -27.638012 15.311027 -24.577555 3.354307 20.755347 3.400219 -21.238846 0.000000 0.000000 0.000000 -7.125000 0.000000 0.000000 -8.143473 52.368676 1.482479 0.000000 0.000000 0.000000 -1.987369 1.923082 16.423414 -13.211442 -21.596199 -2.530631 -20.862575 -10.152638 -12.430378 0.000000 0.000000 0.000000 7.125000 0.000000 0.000000 4.426909 16.732562 2.973850
8.780704 17.685173 30.924367 -170.002790 -2.560525 -179.536347 0.000000 0.000000 0.000000 -5.113749 -7.921162 -17.519232 8.400928 16.404228 53.990858 0.118876 -5.911536 -6.865765 0.492181 -4.495302 -12.474939 0.000000 0.000000 0.000000 34.140286 -4.072345 -2.143832 -1.496462 -7.726356 21.886494 -1.221925 1.746063 -20.393209 -0.535356 -4.684869 13.012563 7.672460 0.754768 5.299623 4.155667 1.207421 0.601780 -0.077917 0.398145 -2.267727 -9.668950 -1.210250 -16.256260 4.013498 -2.272667 31.588023 2.716933 -2.380029 13.521672 0.000000 0.000000 0.000000 1.125871 3.565539 -26.940658 15.884468 -25.363720 3.596336 18.932146 3.804656 -19.862820 0.000000 0.000000 0.000000 -7.125000 0.000000 0.000000 -9.481556 50.642066 1.329337 0.000000 0.000000 0.000000 -2.013221 1.481460 15.075464 -12.929942 -21.184487 -2.427912 -19.070150 -9.001276 -12.940263 0.000000 0.000000 0.000000 7.125000 0.000000 0.000000 5.683430 16.359002 3.871176
8.866635 17.651127 30.846869 -168.118613 -3.543073 -180.852244 0.000000 0.000000 0.000000 -1.234491 -11.170242 -23.808660 11.342705 18.098403 63.889254 -0.141469 -8.121432 -2.010854 0.303459 -3.541812 -9.791159 0.000000 0.000000 0.000000 36.839558 -5.136605 1.259235 -0.999753 -6.362330 17.839690 -1.046870 -0.212087 -19.421928 -0.622796 -5.049756 14.050639 9.959752 0.834730 6.722227 4.747885 1.344567 1.828878 -0.738470 0.414049 -1.715109 -10.024659 -1.241106 -15.745819 4.328271 -2.462259 31.797663 2.875893 -2.490874 13.524908 0.000000 0.000000 0.000000 0.847090 3.745552 -26.574940 17.156835 -27.064062 4.158448 18.268772 3.352107 -22.302366 0.000000 0.000000 0.000000 -7.125000 0.000000 0.000000 -11.031991 53.007559 2.191887 0.000000 0.000000 0.000000 -2.829924 1.212680 16.692317 -12.983919 -21.263556 -2.447475 -20.363740 -9.162313 -10.897598 0.000000 0.000000 0.000000 7.125000 0.000000 0.000000 4.733971 18.397657 3.008253
8.908119 17.692085 30.654775 -168.876825 -2.218449 -180.650172 0.000000 0.000000 0.000000 -1.635274 -10.967000 -27.889441 11.137115 18.001205 63.225588 -0.172257 -11.094974 -4.828602 0.268005 -3.329470 -9.197351 0.000000 0.000000 0.000000 36.011515 -5.262856 3.034142 -0.807486 -5.734622 16.016420 -0.971536 0.373826 -18.512607 -0.700770 -5.350402 14.910930 9.661298 1.439193 7.507413 4.392539 2.171135 2.410343 -1.018020 0.848011 -1.472030 -9.851656 -1.075912 -15.808307 4.271064 -2.571035 33.156838 2.808835 -2.646253 14.137338 0.000000 0.000000 0.000000 0.258173 4.567269 -24.771147 16.714771 -26.480022 3.959394 22.031160 5.114037 -21.638005 0.000000 0.000000 0.000000 -7.125000 0.000000 0.000000 -6.995080 53.013782 1.384605 0.000000 0.000000 0.000000 -3.266772 0.677078 15.507421 -12.145354 -20.022252 -2.151810 -20.869882 -7.882526 -13.234264 0.000000 0.000000 0.000000 7.125000 0.000000 0.000000 4.450676 15.880852 3.072394
8.935404 17.725046 30.376497 -169.372436 -1.933733 -179.853347 0.000000 0.000000 0.000000 -2.501705 -11.320976 -30.174450 8.624287 16.557959 54.778735 -0.241290 -13.217704 -5.821238 0.069814 -1.037217 -2.861094 0.000000 0.000000 0.000000 35.381277 -6.010880 3.902744 -0.657630 -5.186136 14.440399 -0.961313 1.329202 -18.131549 -0.781302 -5.643060 15.752206 9.836983 1.717302 7.394180 3.960382 2.542435 2.603700 -1.585062 1.065919 -1.146153 -10.005259 -0.745471 -15.306587 4.641806 -2.488405 33.987229 3.003274 -2.681196 14.390717 0.000000 0.000000 0.000000 -0.103329 5.866170 -23.688911 15.379592 -24.671911 3.382967 20.945783 2.965719 -18.554920 0.000000 0.000000 0.000000 -7.125000 0.000000 0.000000 -7.125908 49.613927 0.820321 0.000000 0.000000 0.000000 -3.182833 0.514140 13.727715 -11.733144 -19.403197 -2.012748 -21.284880 -8.002232 -12.974713 0.000000 0.000000 0.000000 7.125000 0.000000 0.000000 4.154341 16.114954 2.845621
